<svg width="1440" height="728" viewBox="0 0 1440 728" fill="none" xmlns="http://www.w3.org/2000/svg">
<path opacity="0.2" fill-rule="evenodd" clip-rule="evenodd" d="M1216.38 -202.529C1337.56 -222.005 1477.68 -199.879 1557.04 -103.741C1633.7 -10.8579 1595.43 124.938 1586.96 246.439C1579.41 354.656 1578.48 465.954 1511.45 549.763C1438.04 641.562 1331.93 705.947 1216.38 709.798C1097.61 713.756 982.633 659.376 901.537 570.089C822.975 483.591 782.075 363.966 795.531 246.439C807.781 139.448 895.127 68.5248 967.844 -9.05023C1042.81 -89.0197 1109.65 -185.376 1216.38 -202.529Z" fill="#9E1EF9"/>
<path opacity="0.1" fill-rule="evenodd" clip-rule="evenodd" d="M550.677 -373.192C792.438 -396.693 1071.99 -369.994 1230.3 -253.979C1383.26 -141.893 1306.91 21.9788 1290 168.599C1274.95 299.19 1273.09 433.499 1139.37 534.634C992.891 645.413 781.201 723.109 550.677 727.756C313.724 732.532 84.3314 666.91 -77.4611 559.163C-234.199 454.782 -315.796 310.424 -288.951 168.599C-264.512 39.4886 -90.2493 -46.0979 54.8259 -139.711C204.379 -236.214 337.731 -352.491 550.677 -373.192Z" fill="#9E1EF9"/>
<g opacity="0.64" clip-path="url(#clip0_892_50)">
<path fill-rule="evenodd" clip-rule="evenodd" d="M1065.57 204.857C1063.31 204.857 1061.53 206.233 1060.44 207.883C1059.33 209.547 1058.71 211.719 1058.71 214C1058.71 216.281 1059.33 218.453 1060.44 220.117C1061.53 221.762 1063.31 223.143 1065.57 223.143C1067.83 223.143 1069.61 221.767 1070.71 220.117C1071.82 218.453 1072.43 216.281 1072.43 214C1072.43 211.719 1071.82 209.547 1070.71 207.883C1069.61 206.238 1067.83 204.857 1065.57 204.857ZM1088.43 204.857C1086.17 204.857 1084.39 206.233 1083.29 207.883C1082.18 209.547 1081.57 211.719 1081.57 214C1081.57 216.281 1082.18 218.453 1083.29 220.117C1084.39 221.762 1086.17 223.143 1088.43 223.143C1090.69 223.143 1092.47 221.767 1093.56 220.117C1094.67 218.453 1095.29 216.281 1095.29 214C1095.29 211.719 1094.67 209.547 1093.56 207.883C1092.47 206.238 1090.69 204.857 1088.43 204.857ZM1051.86 225.429C1049.59 225.429 1047.82 226.805 1046.72 228.455C1045.61 230.119 1045 232.29 1045 234.571C1045 236.853 1045.61 239.024 1046.72 240.688C1047.82 242.334 1049.59 243.714 1051.86 243.714C1054.12 243.714 1055.89 242.338 1056.99 240.688C1058.1 239.024 1058.71 236.853 1058.71 234.571C1058.71 232.29 1058.1 230.119 1056.99 228.455C1055.89 226.809 1054.12 225.429 1051.86 225.429ZM1077 225.429C1071.51 225.429 1067.45 228.373 1064.85 232.025C1062.29 235.623 1061 240.089 1061 243.714C1061 247.938 1063.54 250.873 1066.65 252.638C1069.71 254.375 1073.55 255.143 1077 255.143C1080.45 255.143 1084.29 254.379 1087.35 252.638C1090.46 250.873 1093 247.938 1093 243.714C1093 240.089 1091.71 235.623 1089.15 232.025C1086.55 228.368 1082.49 225.429 1077 225.429ZM1102.14 225.429C1099.88 225.429 1098.11 226.805 1097.01 228.455C1095.9 230.119 1095.29 232.29 1095.29 234.571C1095.29 236.853 1095.9 239.024 1097.01 240.688C1098.11 242.334 1099.88 243.714 1102.14 243.714C1104.41 243.714 1106.18 242.338 1107.28 240.688C1108.39 239.024 1109 236.853 1109 234.571C1109 232.29 1108.39 230.119 1107.28 228.455C1106.18 226.809 1104.41 225.429 1102.14 225.429Z" fill="#9E1EF9"/>
</g>
<g opacity="0.64" clip-path="url(#clip1_892_50)">
<path fill-rule="evenodd" clip-rule="evenodd" d="M1344.57 439.857C1342.31 439.857 1340.53 441.233 1339.44 442.883C1338.33 444.547 1337.71 446.719 1337.71 449C1337.71 451.281 1338.33 453.453 1339.44 455.117C1340.53 456.762 1342.31 458.143 1344.57 458.143C1346.83 458.143 1348.61 456.767 1349.71 455.117C1350.82 453.453 1351.43 451.281 1351.43 449C1351.43 446.719 1350.82 444.547 1349.71 442.883C1348.61 441.238 1346.83 439.857 1344.57 439.857ZM1367.43 439.857C1365.17 439.857 1363.39 441.233 1362.29 442.883C1361.18 444.547 1360.57 446.719 1360.57 449C1360.57 451.281 1361.18 453.453 1362.29 455.117C1363.39 456.762 1365.17 458.143 1367.43 458.143C1369.69 458.143 1371.47 456.767 1372.56 455.117C1373.67 453.453 1374.29 451.281 1374.29 449C1374.29 446.719 1373.67 444.547 1372.56 442.883C1371.47 441.238 1369.69 439.857 1367.43 439.857ZM1330.86 460.429C1328.59 460.429 1326.82 461.805 1325.72 463.455C1324.61 465.119 1324 467.29 1324 469.571C1324 471.853 1324.61 474.024 1325.72 475.688C1326.82 477.334 1328.59 478.714 1330.86 478.714C1333.12 478.714 1334.89 477.338 1335.99 475.688C1337.1 474.024 1337.71 471.853 1337.71 469.571C1337.71 467.29 1337.1 465.119 1335.99 463.455C1334.89 461.809 1333.12 460.429 1330.86 460.429ZM1356 460.429C1350.51 460.429 1346.45 463.373 1343.85 467.025C1341.29 470.623 1340 475.089 1340 478.714C1340 482.938 1342.54 485.873 1345.65 487.638C1348.71 489.375 1352.55 490.143 1356 490.143C1359.45 490.143 1363.29 489.379 1366.35 487.638C1369.46 485.873 1372 482.938 1372 478.714C1372 475.089 1370.71 470.623 1368.15 467.025C1365.55 463.368 1361.49 460.429 1356 460.429ZM1381.14 460.429C1378.88 460.429 1377.11 461.805 1376.01 463.455C1374.9 465.119 1374.29 467.29 1374.29 469.571C1374.29 471.853 1374.9 474.024 1376.01 475.688C1377.11 477.334 1378.88 478.714 1381.14 478.714C1383.41 478.714 1385.18 477.338 1386.28 475.688C1387.39 474.024 1388 471.853 1388 469.571C1388 467.29 1387.39 465.119 1386.28 463.455C1385.18 461.809 1383.41 460.429 1381.14 460.429Z" fill="#F5FFFE"/>
</g>
<defs>
<clipPath id="clip0_892_50">
<rect width="64" height="64" fill="white" transform="translate(1045 198)"/>
</clipPath>
<clipPath id="clip1_892_50">
<rect width="64" height="64" fill="white" transform="translate(1324 433)"/>
</clipPath>
</defs>
</svg>
